<?xml version="1.0" encoding="UTF-8"?><svg id="Layer_2" xmlns="http://www.w3.org/2000/svg" viewBox="0 0 60.17 52.26"><defs><style>.cls-1{fill:#fff;}.cls-2{fill:#a6a6a6;}.cls-3{fill:#f43b3b;}.cls-4{fill:#116299;}</style></defs><g id="Layer_1-2"><g><g><path class="cls-3" d="M28.53,25.57l-3.79-3.79,6.69-6.69,3.79,3.79-6.69,6.69m0,3.09l9.78-9.78-6.88-6.88-9.78,9.78,6.88,6.88h0Z"/><path class="cls-3" d="M40.54,37.58l-3.79-3.79,6.69-6.69,3.79,3.79-6.69,6.69m0,3.09l9.78-9.78-6.88-6.88-9.78,9.78,6.88,6.88h0Z"/><path class="cls-3" d="M16.53,37.58l-3.79-3.79,6.69-6.69,3.79,3.79-6.69,6.69m0,3.09l9.78-9.78-6.88-6.88-9.78,9.78,6.88,6.88h0Z"/><path class="cls-3" d="M40.54,13.57l-3.79-3.79,6.69-6.69,3.79,3.79-6.69,6.69m0,3.09l9.78-9.78L43.44,0l-9.78,9.78,6.88,6.88h0Z"/><polygon class="cls-4" points="37.99 10.78 39.28 9.49 40.82 11.04 32.69 19.17 31.15 17.62 37.99 10.78"/><polygon class="cls-4" points="25.99 22.78 27.27 21.5 28.82 23.04 20.69 31.17 19.14 29.63 25.99 22.78"/><polygon class="cls-4" points="43.88 16.66 45.16 15.37 46.7 16.92 38.57 25.05 37.03 23.5 43.88 16.66"/><polygon class="cls-4" points="31.87 28.66 33.15 27.38 34.7 28.92 26.57 37.05 25.02 35.51 31.87 28.66"/><path class="cls-3" d="M19.42,3.09l3.79,3.79-6.69,6.69-3.79-3.79,6.69-6.69m0-3.09L9.65,9.78l6.88,6.88L26.3,6.88,19.42,0h0Z"/><polygon class="cls-4" points="16.09 24.01 14.8 25.29 13.26 23.75 21.39 15.62 22.93 17.16 16.09 24.01"/><polygon class="cls-4" points="28.09 12 26.81 13.28 25.27 11.74 33.4 3.61 34.94 5.16 28.09 12"/></g><g><path class="cls-4" d="M0,51.82v-5.83c0-.13,.11-.24,.24-.24H1.86c.13,0,.24,.11,.24,.24v1.62c0,.13,.11,.24,.24,.24h2.67c.13,0,.24-.11,.24-.24v-1.62c0-.13,.11-.24,.24-.24h.57c.13,0,.24,.11,.24,.24v5.83c0,.13-.11,.24-.24,.24h-.57c-.13,0-.24-.11-.24-.24v-2.67c0-.13-.11-.24-.24-.24H2.35c-.13,0-.24,.11-.24,.24v2.67c0,.13-.11,.24-.24,.24H.24c-.13,0-.24-.11-.24-.24Z"/><path class="cls-4" d="M7.36,51.82v-3.72c0-.13,.11-.24,.24-.24h.57c.13,0,.24-.11,.24-.24v-.57c0-.13,.11-.24,.24-.24h2.67c.13,0,.24,.11,.24,.24v.57c0,.13-.11,.24-.24,.24h-1.62c-.13,0-.24,.11-.24,.24v.57c0,.13,.11,.24,.24,.24h1.62c.13,0,.24-.11,.24-.24v-.57c0-.13,.11-.24,.24-.24h.57c.13,0,.24,.11,.24,.24v3.72c0,.13-.11,.24-.24,.24h-.57c-.13,0-.24-.11-.24-.24v-1.62c0-.13-.11-.24-.24-.24h-1.62c-.13,0-.24,.11-.24,.24v1.62c0,.13-.11,.24-.24,.24h-1.62c-.13,0-.24-.11-.24-.24Z"/><path class="cls-4" d="M14.73,51.82v-.57c0-.13-.11-.24-.24-.24h-.57c-.13,0-.24-.11-.24-.24v-2.67c0-.13,.11-.24,.24-.24h.57c.13,0,.24-.11,.24-.24v-.57c0-.13,.11-.24,.24-.24h3.73c.13,0,.24,.11,.24,.24v.57c0,.13-.11,.24-.24,.24h-2.67c-.13,0-.24,.11-.24,.24v2.67c0,.13,.11,.24,.24,.24h2.67c.13,0,.24,.11,.24,.24v.57c0,.13-.11,.24-.24,.24h-3.73c-.13,0-.24-.11-.24-.24Z"/><path class="cls-4" d="M19.99,51.82v-4.78c0-.13,.11-.24,.24-.24h1.62c.13,0,.24,.11,.24,.24v1.62c0,.13,.11,.24,.24,.24h.57c.13,0,.24,.11,.24,.24v.57c0,.13-.11,.24-.24,.24h-.57c-.13,0-.24,.11-.24,.24v1.62c0,.13-.11,.24-.24,.24h-1.62c-.13,0-.24-.11-.24-.24Zm3.15-3.15v-.57c0-.13,.11-.24,.24-.24h.57c.13,0,.24,.11,.24,.24v.57c0,.13-.11,.24-.24,.24h-.57c-.13,0-.24-.11-.24-.24Zm0,2.1v-.57c0-.13,.11-.24,.24-.24h.57c.13,0,.24,.11,.24,.24v.57c0,.13-.11,.24-.24,.24h-.57c-.13,0-.24-.11-.24-.24Zm1.05-3.16v-.57c0-.13,.11-.24,.24-.24h.57c.13,0,.24,.11,.24,.24v.57c0,.13-.11,.24-.24,.24h-.57c-.13,0-.24-.11-.24-.24Zm0,4.21v-.57c0-.13,.11-.24,.24-.24h.57c.13,0,.24,.11,.24,.24v.57c0,.13-.11,.24-.24,.24h-.57c-.13,0-.24-.11-.24-.24Z"/><path class="cls-3" d="M27.35,51.82v-.57c0-.13-.11-.24-.24-.24h-.57c-.13,0-.24-.11-.24-.24v-3.73c0-.13,.11-.24,.24-.24h.57c.13,0,.24-.11,.24-.24v-.57c0-.13,.11-.24,.24-.24h4.78c.13,0,.24,.11,.24,.24v.57c0,.13-.11,.24-.24,.24h-3.72c-.13,0-.24,.11-.24,.24v3.73c0,.13,.11,.24,.24,.24h3.72c.13,0,.24,.11,.24,.24v.57c0,.13-.11,.24-.24,.24h-4.78c-.13,0-.24-.11-.24-.24Z"/><path class="cls-3" d="M34.72,51.82v-.57c0-.13-.11-.24-.24-.24h-.57c-.13,0-.24-.11-.24-.24v-2.67c0-.13,.11-.24,.24-.24h.57c.13,0,.24-.11,.24-.24v-.57c0-.13,.11-.24,.24-.24h2.67c.13,0,.24,.11,.24,.24v.57c0,.13-.11,.24-.24,.24h-1.62c-.13,0-.24,.11-.24,.24v2.67c0,.13,.11,.24,.24,.24h1.62c.13,0,.24,.11,.24,.24v.57c0,.13-.11,.24-.24,.24h-2.67c-.13,0-.24-.11-.24-.24Zm3.16-1.05v-2.67c0-.13,.11-.24,.24-.24h.57c.13,0,.24,.11,.24,.24v2.67c0,.13-.11,.24-.24,.24h-.57c-.13,0-.24-.11-.24-.24Z"/><path class="cls-3" d="M39.98,51.82v-4.78c0-.13,.11-.24,.24-.24h3.72c.13,0,.24,.11,.24,.24v.57c0,.13-.11,.24-.24,.24h-1.62c-.13,0-.24,.11-.24,.24v3.72c0,.13-.11,.24-.24,.24h-1.62c-.13,0-.24-.11-.24-.24Zm4.21,0v-3.72c0-.13,.11-.24,.24-.24h.57c.13,0,.24,.11,.24,.24v3.72c0,.13-.11,.24-.24,.24h-.57c-.13,0-.24-.11-.24-.24Z"/><g><path class="cls-1" d="M46.29,51.82v-5.83c0-.13,.11-.24,.24-.24h4.78c.13,0,.24,.11,.24,.24v.57c0,.13-.11,.24-.24,.24h-2.67c-.13,0-.24,.11-.24,.24v1.62c0,.13,.11,.24,.24,.24h2.67c.13,0,.24,.11,.24,.24v.57c0,.13-.11,.24-.24,.24h-2.67c-.13,0-.24,.11-.24,.24v1.62c0,.13-.11,.24-.24,.24h-1.62c-.13,0-.24-.11-.24-.24Zm5.26-3.15v-1.62c0-.13,.11-.24,.24-.24h.57c.13,0,.24,.11,.24,.24v1.62c0,.13-.11,.24-.24,.24h-.57c-.13,0-.24-.11-.24-.24Zm0,3.15v-1.62c0-.13,.11-.24,.24-.24h.57c.13,0,.24,.11,.24,.24v1.62c0,.13-.11,.24-.24,.24h-.57c-.13,0-.24-.11-.24-.24Z"/><path class="cls-2" d="M52.36,52.26h-.57c-.24,0-.44-.2-.44-.44v-1.62s0-.03,0-.04c-.01,0-.03,0-.04,0h-2.67s-.04,.02-.04,.04v1.62c0,.24-.2,.44-.44,.44h-1.62c-.24,0-.44-.2-.44-.44v-5.83c0-.24,.2-.44,.44-.44h4.78c.24,0,.44,.2,.44,.44v.57s0,.03,0,.04c.01,0,.03,0,.04,0h.57c.24,0,.44,.2,.44,.44v1.62c0,.24-.2,.44-.44,.44h-.57s-.03,0-.04,0c0,.01,0,.03,0,.04v.57s0,.03,0,.04c.01,0,.03,0,.04,0h.57c.24,0,.44,.2,.44,.44v1.62c0,.24-.2,.44-.44,.44Zm-.57-2.1s-.04,.02-.04,.04v1.62s.02,.04,.04,.04h.57s.04-.02,.04-.04v-1.62s-.02-.04-.04-.04h-.57Zm-5.26-4.21s-.04,.02-.04,.04v5.83s.02,.04,.04,.04h1.62s.04-.02,.04-.04v-1.62c0-.24,.2-.44,.44-.44h2.67s.04-.02,.04-.04v-.57s-.02-.04-.04-.04h-2.67c-.24,0-.44-.2-.44-.44v-1.62c0-.24,.2-.44,.44-.44h2.67s.04-.02,.04-.04v-.57s-.02-.04-.04-.04h-4.78Zm2.1,1.05s-.04,.02-.04,.04v1.62s.02,.04,.04,.04h2.67s.03,0,.04,0c0-.01,0-.03,0-.04v-1.62s0-.03,0-.04c-.01,0-.03,0-.04,0h-2.67Zm3.16,0s-.04,.02-.04,.04v1.62s.02,.04,.04,.04h.57s.04-.02,.04-.04v-1.62s-.02-.04-.04-.04h-.57Z"/></g><g><path class="cls-1" d="M53.65,51.82v-5.83c0-.13,.11-.24,.24-.24h4.78c.13,0,.24,.11,.24,.24v.57c0,.13-.11,.24-.24,.24h-2.67c-.13,0-.24,.11-.24,.24v3.73c0,.13,.11,.24,.24,.24h2.67c.13,0,.24,.11,.24,.24v.57c0,.13-.11,.24-.24,.24h-4.78c-.13,0-.24-.11-.24-.24Zm5.26-1.05v-3.73c0-.13,.11-.24,.24-.24h.57c.13,0,.24,.11,.24,.24v3.73c0,.13-.11,.24-.24,.24h-.57c-.13,0-.24-.11-.24-.24Z"/><path class="cls-2" d="M58.67,52.26h-4.78c-.24,0-.44-.2-.44-.44v-5.83c0-.24,.2-.44,.44-.44h4.78c.24,0,.44,.2,.44,.44v.57s0,.03,0,.04c.01,0,.03,0,.04,0h.57c.24,0,.44,.2,.44,.44v3.73c0,.24-.2,.44-.44,.44h-.57s-.03,0-.04,0c0,.01,0,.03,0,.04v.57c0,.24-.2,.44-.44,.44Zm-4.78-6.31s-.04,.02-.04,.04v5.83s.02,.04,.04,.04h4.78s.04-.02,.04-.04v-.57s-.02-.04-.04-.04h-2.67c-.24,0-.44-.2-.44-.44v-3.73c0-.24,.2-.44,.44-.44h2.67s.04-.02,.04-.04v-.57s-.02-.04-.04-.04h-4.78Zm2.1,1.05s-.04,.02-.04,.04v3.73s.02,.04,.04,.04h2.67s.03,0,.04,0c0-.01,0-.03,0-.04v-3.73s0-.03,0-.04c-.01,0-.03,0-.04,0h-2.67Zm3.16,0s-.04,.02-.04,.04v3.73s.02,.04,.04,.04h.57s.04-.02,.04-.04v-3.73s-.02-.04-.04-.04h-.57Z"/></g></g></g></g></svg>