<?xml version="1.0" encoding="UTF-8"?><svg id="Layer_2" xmlns="http://www.w3.org/2000/svg" viewBox="0 0 100.73 22.58"><defs><style>.cls-1{fill:#fff;}.cls-2{fill:#a6a6a6;}.cls-3{fill:#7f7f7f;}</style></defs><g id="Layer_1-2"><g><g><path class="cls-3" d="M10.49,14.2l-2.11-2.11,3.71-3.71,2.11,2.11-3.71,3.71m0,1.71l5.43-5.43-3.82-3.82-5.43,5.43,3.82,3.82h0Z"/><path class="cls-3" d="M17.15,20.87l-2.11-2.11,3.71-3.71,2.11,2.11-3.71,3.71m0,1.71l5.43-5.43-3.82-3.82-5.43,5.43,3.82,3.82h0Z"/><path class="cls-3" d="M3.82,20.87l-2.11-2.11,3.71-3.71,2.11,2.11-3.71,3.71m0,1.71l5.43-5.43-3.82-3.82L0,18.76l3.82,3.82h0Z"/><path class="cls-3" d="M17.15,7.53l-2.11-2.11,3.71-3.71,2.11,2.11-3.71,3.71m0,1.71l5.43-5.43L18.76,0l-5.43,5.43,3.82,3.82h0Z"/><polygon class="cls-2" points="15.74 5.98 16.45 5.27 17.31 6.13 12.8 10.64 11.94 9.79 15.74 5.98"/><polygon class="cls-2" points="9.07 12.65 9.79 11.94 10.64 12.8 6.13 17.31 5.27 16.45 9.07 12.65"/><polygon class="cls-2" points="19.01 9.25 19.72 8.54 20.57 9.39 16.06 13.91 15.2 13.05 19.01 9.25"/><polygon class="cls-2" points="12.34 15.92 13.05 15.2 13.91 16.06 9.39 20.57 8.54 19.72 12.34 15.92"/><path class="cls-3" d="M5.43,1.71l2.11,2.11-3.71,3.71L1.71,5.43,5.43,1.71m0-1.71L0,5.43l3.82,3.82L9.25,3.82,5.43,0h0Z"/><polygon class="cls-2" points="3.58 13.33 2.86 14.04 2.01 13.19 6.52 8.67 7.38 9.53 3.58 13.33"/><polygon class="cls-2" points="10.24 6.66 9.53 7.38 8.67 6.52 13.19 2.01 14.04 2.86 10.24 6.66"/></g><g><path class="cls-2" d="M27.66,14.83V7.75c0-.16,.13-.29,.29-.29h1.97c.16,0,.29,.13,.29,.29v1.97c0,.16,.13,.29,.29,.29h3.25c.16,0,.29-.13,.29-.29v-1.97c0-.16,.13-.29,.29-.29h.69c.16,0,.29,.13,.29,.29v7.08c0,.16-.13,.29-.29,.29h-.69c-.16,0-.29-.13-.29-.29v-3.24c0-.16-.13-.29-.29-.29h-3.25c-.16,0-.29,.13-.29,.29v3.24c0,.16-.13,.29-.29,.29h-1.97c-.16,0-.29-.13-.29-.29Z"/><path class="cls-2" d="M36.6,14.83v-4.52c0-.16,.13-.29,.29-.29h.69c.16,0,.29-.13,.29-.29v-.69c0-.16,.13-.29,.29-.29h3.25c.16,0,.29,.13,.29,.29v.69c0,.16-.13,.29-.29,.29h-1.97c-.16,0-.29,.13-.29,.29v.69c0,.16,.13,.29,.29,.29h1.97c.16,0,.29-.13,.29-.29v-.69c0-.16,.13-.29,.29-.29h.69c.16,0,.29,.13,.29,.29v4.52c0,.16-.13,.29-.29,.29h-.69c-.16,0-.29-.13-.29-.29v-1.97c0-.16-.13-.29-.29-.29h-1.97c-.16,0-.29,.13-.29,.29v1.97c0,.16-.13,.29-.29,.29h-1.97c-.16,0-.29-.13-.29-.29Z"/><path class="cls-2" d="M45.55,14.83v-.69c0-.16-.13-.29-.29-.29h-.69c-.16,0-.29-.13-.29-.29v-3.25c0-.16,.13-.29,.29-.29h.69c.16,0,.29-.13,.29-.29v-.69c0-.16,.13-.29,.29-.29h4.52c.16,0,.29,.13,.29,.29v.69c0,.16-.13,.29-.29,.29h-3.25c-.16,0-.29,.13-.29,.29v3.25c0,.16,.13,.29,.29,.29h3.25c.16,0,.29,.13,.29,.29v.69c0,.16-.13,.29-.29,.29h-4.52c-.16,0-.29-.13-.29-.29Z"/><path class="cls-2" d="M51.94,14.83v-5.8c0-.16,.13-.29,.29-.29h1.97c.16,0,.29,.13,.29,.29v1.97c0,.16,.13,.29,.29,.29h.69c.16,0,.29,.13,.29,.29v.69c0,.16-.13,.29-.29,.29h-.69c-.16,0-.29,.13-.29,.29v1.97c0,.16-.13,.29-.29,.29h-1.97c-.16,0-.29-.13-.29-.29Zm3.83-3.83v-.69c0-.16,.13-.29,.29-.29h.69c.16,0,.29,.13,.29,.29v.69c0,.16-.13,.29-.29,.29h-.69c-.16,0-.29-.13-.29-.29Zm0,2.56v-.69c0-.16,.13-.29,.29-.29h.69c.16,0,.29,.13,.29,.29v.69c0,.16-.13,.29-.29,.29h-.69c-.16,0-.29-.13-.29-.29Zm1.28-3.83v-.69c0-.16,.13-.29,.29-.29h.69c.16,0,.29,.13,.29,.29v.69c0,.16-.13,.29-.29,.29h-.69c-.16,0-.29-.13-.29-.29Zm0,5.11v-.69c0-.16,.13-.29,.29-.29h.69c.16,0,.29,.13,.29,.29v.69c0,.16-.13,.29-.29,.29h-.69c-.16,0-.29-.13-.29-.29Z"/><path class="cls-3" d="M60.88,14.83v-.69c0-.16-.13-.29-.29-.29h-.69c-.16,0-.29-.13-.29-.29v-4.52c0-.16,.13-.29,.29-.29h.69c.16,0,.29-.13,.29-.29v-.69c0-.16,.13-.29,.29-.29h5.8c.16,0,.29,.13,.29,.29v.69c0,.16-.13,.29-.29,.29h-4.52c-.16,0-.29,.13-.29,.29v4.52c0,.16,.13,.29,.29,.29h4.52c.16,0,.29,.13,.29,.29v.69c0,.16-.13,.29-.29,.29h-5.8c-.16,0-.29-.13-.29-.29Z"/><path class="cls-3" d="M69.82,14.83v-.69c0-.16-.13-.29-.29-.29h-.69c-.16,0-.29-.13-.29-.29v-3.25c0-.16,.13-.29,.29-.29h.69c.16,0,.29-.13,.29-.29v-.69c0-.16,.13-.29,.29-.29h3.25c.16,0,.29,.13,.29,.29v.69c0,.16-.13,.29-.29,.29h-1.97c-.16,0-.29,.13-.29,.29v3.25c0,.16,.13,.29,.29,.29h1.97c.16,0,.29,.13,.29,.29v.69c0,.16-.13,.29-.29,.29h-3.25c-.16,0-.29-.13-.29-.29Zm3.83-1.28v-3.25c0-.16,.13-.29,.29-.29h.69c.16,0,.29,.13,.29,.29v3.25c0,.16-.13,.29-.29,.29h-.69c-.16,0-.29-.13-.29-.29Z"/><path class="cls-3" d="M76.21,14.83v-5.8c0-.16,.13-.29,.29-.29h4.52c.16,0,.29,.13,.29,.29v.69c0,.16-.13,.29-.29,.29h-1.97c-.16,0-.29,.13-.29,.29v4.52c0,.16-.13,.29-.29,.29h-1.97c-.16,0-.29-.13-.29-.29Zm5.11,0v-4.52c0-.16,.13-.29,.29-.29h.69c.16,0,.29,.13,.29,.29v4.52c0,.16-.13,.29-.29,.29h-.69c-.16,0-.29-.13-.29-.29Z"/><g><path class="cls-1" d="M83.88,14.83V7.75c0-.16,.13-.29,.29-.29h5.8c.16,0,.29,.13,.29,.29v.69c0,.16-.13,.29-.29,.29h-3.25c-.16,0-.29,.13-.29,.29v1.97c0,.16,.13,.29,.29,.29h3.25c.16,0,.29,.13,.29,.29v.69c0,.16-.13,.29-.29,.29h-3.25c-.16,0-.29,.13-.29,.29v1.97c0,.16-.13,.29-.29,.29h-1.97c-.16,0-.29-.13-.29-.29Zm6.39-3.83v-1.97c0-.16,.13-.29,.29-.29h.69c.16,0,.29,.13,.29,.29v1.97c0,.16-.13,.29-.29,.29h-.69c-.16,0-.29-.13-.29-.29Zm0,3.83v-1.97c0-.16,.13-.29,.29-.29h.69c.16,0,.29,.13,.29,.29v1.97c0,.16-.13,.29-.29,.29h-.69c-.16,0-.29-.13-.29-.29Z"/><path class="cls-2" d="M91.25,15.37h-.69c-.3,0-.54-.24-.54-.54v-1.97s0-.04,0-.05c-.02,0-.03,0-.05,0h-3.25s-.05,.02-.05,.05v1.97c0,.3-.24,.54-.54,.54h-1.97c-.3,0-.54-.24-.54-.54V7.75c0-.3,.24-.54,.54-.54h5.8c.3,0,.54,.24,.54,.54v.69s0,.04,0,.05c.02,0,.04,0,.05,0h.69c.3,0,.54,.24,.54,.54v1.97c0,.3-.24,.54-.54,.54h-.69s-.04,0-.05,0c0,.02,0,.04,0,.05v.69s0,.04,0,.05c.02,0,.03,0,.05,0h.69c.3,0,.54,.24,.54,.54v1.97c0,.3-.24,.54-.54,.54Zm-.69-2.56s-.05,.02-.05,.05v1.97s.02,.05,.05,.05h.69s.05-.02,.05-.05v-1.97s-.02-.05-.05-.05h-.69Zm-6.39-5.11s-.05,.02-.05,.05v7.08s.02,.05,.05,.05h1.97s.05-.02,.05-.05v-1.97c0-.3,.24-.54,.54-.54h3.25s.05-.02,.05-.05v-.69s-.02-.05-.05-.05h-3.25c-.3,0-.54-.24-.54-.54v-1.97c0-.3,.24-.54,.54-.54h3.25s.05-.02,.05-.05v-.69s-.02-.05-.05-.05h-5.8Zm2.55,1.28s-.05,.02-.05,.05v1.97s.02,.05,.05,.05h3.25s.04,0,.05,0c0-.02,0-.04,0-.05v-1.97s0-.04,0-.05c-.02,0-.03,0-.05,0h-3.25Zm3.83,0s-.05,.02-.05,.05v1.97s.02,.05,.05,.05h.69s.05-.02,.05-.05v-1.97s-.02-.05-.05-.05h-.69Z"/></g><g><path class="cls-1" d="M92.82,14.83V7.75c0-.16,.13-.29,.29-.29h5.8c.16,0,.29,.13,.29,.29v.69c0,.16-.13,.29-.29,.29h-3.25c-.16,0-.29,.13-.29,.29v4.52c0,.16,.13,.29,.29,.29h3.25c.16,0,.29,.13,.29,.29v.69c0,.16-.13,.29-.29,.29h-5.8c-.16,0-.29-.13-.29-.29Zm6.39-1.28v-4.52c0-.16,.13-.29,.29-.29h.69c.16,0,.29,.13,.29,.29v4.52c0,.16-.13,.29-.29,.29h-.69c-.16,0-.29-.13-.29-.29Z"/><path class="cls-2" d="M98.92,15.37h-5.8c-.3,0-.54-.24-.54-.54V7.75c0-.3,.24-.54,.54-.54h5.8c.3,0,.54,.24,.54,.54v.69s0,.04,0,.05c.02,0,.03,0,.05,0h.69c.3,0,.54,.24,.54,.54v4.52c0,.3-.24,.54-.54,.54h-.69s-.04,0-.05,0c0,.02,0,.04,0,.05v.69c0,.3-.24,.54-.54,.54Zm-5.8-7.67s-.05,.02-.05,.05v7.08s.02,.05,.05,.05h5.8s.05-.02,.05-.05v-.69s-.02-.05-.05-.05h-3.25c-.3,0-.54-.24-.54-.54v-4.52c0-.3,.24-.54,.54-.54h3.25s.05-.02,.05-.05v-.69s-.02-.05-.05-.05h-5.8Zm2.56,1.28s-.05,.02-.05,.05v4.52s.02,.05,.05,.05h3.25s.04,0,.05,0c0-.02,0-.04,0-.05v-4.52s0-.04,0-.05c-.02,0-.03,0-.05,0h-3.25Zm3.83,0s-.05,.02-.05,.05v4.52s.02,.05,.05,.05h.69s.05-.02,.05-.05v-4.52s-.02-.05-.05-.05h-.69Z"/></g></g></g></g></svg>