<svg width="393" height="89" viewBox="0 0 393 89" fill="none" xmlns="http://www.w3.org/2000/svg">
<path d="M115 62.2459V25.7541C115 24.9404 115.508 24.2519 116.109 24.2519H123.595C124.196 24.2519 124.704 24.9404 124.704 25.7541V35.8942C124.704 36.7079 125.212 37.3964 125.813 37.3964H138.151C138.752 37.3964 139.26 36.7079 139.26 35.8942V25.7541C139.26 24.9404 139.769 24.2519 140.369 24.2519H143.003C143.604 24.2519 144.112 24.9404 144.112 25.7541V62.2459C144.112 63.0596 143.604 63.7482 143.003 63.7482H140.369C139.769 63.7482 139.26 63.0596 139.26 62.2459V45.5335C139.26 44.7198 138.752 44.0313 138.151 44.0313H125.859C125.259 44.0313 124.75 44.7198 124.75 45.5335V62.2459C124.75 63.0596 124.242 63.7482 123.641 63.7482H116.109C115.508 63.7482 115 63.0596 115 62.2459Z" fill="#116299"/>
<path d="M149.011 62.2459V38.9612C149.011 38.1475 149.519 37.459 150.12 37.459H152.754C153.354 37.459 153.863 36.7705 153.863 35.9568V32.389C153.863 31.5753 154.371 30.8867 154.972 30.8867H167.31C167.911 30.8867 168.419 31.5753 168.419 32.389V35.9568C168.419 36.7705 167.911 37.459 167.31 37.459H159.824C159.223 37.459 158.715 38.1475 158.715 38.9612V42.529C158.715 43.3428 159.223 44.0313 159.824 44.0313H167.31C167.911 44.0313 168.419 43.3428 168.419 42.529V38.9612C168.419 38.1475 168.927 37.459 169.528 37.459H172.162C172.763 37.459 173.271 38.1475 173.271 38.9612V62.2459C173.271 63.0596 172.763 63.7481 172.162 63.7481H169.528C168.927 63.7481 168.419 63.0596 168.419 62.2459V52.1058C168.419 51.2921 167.911 50.6036 167.31 50.6036H159.824C159.223 50.6036 158.715 51.2921 158.715 52.1058V62.2459C158.715 63.0596 158.206 63.7481 157.606 63.7481H150.12C149.519 63.7481 149.011 63.0596 149.011 62.2459Z" fill="#116299"/>
<path d="M183.067 62.2459V58.6781C183.067 57.8644 182.559 57.1758 181.958 57.1758H179.324C178.724 57.1758 178.215 56.4873 178.215 55.6736V38.9612C178.215 38.1475 178.724 37.459 179.324 37.459H181.958C182.559 37.459 183.067 36.7705 183.067 35.9568V32.389C183.067 31.5753 183.576 30.8867 184.177 30.8867H201.413C202.014 30.8867 202.522 31.5753 202.522 32.389V35.9568C202.522 36.7705 202.014 37.459 201.413 37.459H189.075C188.474 37.459 187.966 38.1475 187.966 38.9612V55.6736C187.966 56.4873 188.474 57.1758 189.075 57.1758H201.413C202.014 57.1758 202.522 57.8644 202.522 58.6781V62.2459C202.522 63.0596 202.014 63.7481 201.413 63.7481H184.177C183.576 63.7481 183.067 63.0596 183.067 62.2459Z" fill="#116299"/>
<path d="M207.374 62.2459V32.3264C207.374 31.5127 207.882 30.8241 208.483 30.8241H215.969C216.57 30.8241 217.078 31.5127 217.078 32.3264V42.4665C217.078 43.2802 217.586 43.9687 218.187 43.9687H220.821C221.422 43.9687 221.93 44.6572 221.93 45.4709V49.0387C221.93 49.8525 221.422 50.541 220.821 50.541H218.187C217.586 50.541 217.078 51.2295 217.078 52.0432V62.1833C217.078 62.997 216.57 63.6855 215.969 63.6855H208.483C207.882 63.6855 207.374 62.997 207.374 62.1833V62.2459ZM221.93 42.529V38.9612C221.93 38.1475 222.438 37.459 223.039 37.459H225.673C226.274 37.459 226.782 38.1475 226.782 38.9612V42.529C226.782 43.3428 226.274 44.0313 225.673 44.0313H223.039C222.438 44.0313 221.93 43.3428 221.93 42.529ZM221.93 55.6736V52.1058C221.93 51.2921 222.438 50.6036 223.039 50.6036H225.673C226.274 50.6036 226.782 51.2921 226.782 52.1058V55.6736C226.782 56.4873 226.274 57.1758 225.673 57.1758H223.039C222.438 57.1758 221.93 56.4873 221.93 55.6736ZM226.782 35.8942V32.3264C226.782 31.5127 227.291 30.8241 227.891 30.8241H230.525C231.126 30.8241 231.634 31.5127 231.634 32.3264V35.8942C231.634 36.7079 231.126 37.3964 230.525 37.3964H227.891C227.291 37.3964 226.782 36.7079 226.782 35.8942ZM226.782 62.2459V58.6781C226.782 57.8644 227.291 57.1758 227.891 57.1758H230.525C231.126 57.1758 231.634 57.8644 231.634 58.6781V62.2459C231.634 63.0596 231.126 63.7481 230.525 63.7481H227.891C227.291 63.7481 226.782 63.0596 226.782 62.2459Z" fill="#116299"/>
<path d="M241.385 62.2459V58.6781C241.385 57.8644 240.876 57.1759 240.276 57.1759H237.642C237.041 57.1759 236.533 56.4873 236.533 55.6736V32.3264C236.533 31.5127 237.041 30.8241 237.642 30.8241H240.276C240.876 30.8241 241.385 30.1356 241.385 29.3219V25.7541C241.385 24.9404 241.893 24.2519 242.494 24.2519H264.582C265.183 24.2519 265.691 24.9404 265.691 25.7541V29.3219C265.691 30.1356 265.183 30.8241 264.582 30.8241H247.392C246.791 30.8241 246.283 31.5127 246.283 32.3264V55.6736C246.283 56.4873 246.791 57.1759 247.392 57.1759H264.582C265.183 57.1759 265.691 57.8644 265.691 58.6781V62.2459C265.691 63.0596 265.183 63.7482 264.582 63.7482H242.494C241.893 63.7482 241.385 63.0596 241.385 62.2459Z" fill="#F43B3B"/>
<path d="M275.441 62.2459V58.6781C275.441 57.8644 274.933 57.1758 274.332 57.1758H271.698C271.098 57.1758 270.589 56.4873 270.589 55.6736V38.9612C270.589 38.1475 271.098 37.459 271.698 37.459H274.332C274.933 37.459 275.441 36.7705 275.441 35.9568V32.389C275.441 31.5753 275.95 30.8867 276.551 30.8867H288.889C289.489 30.8867 289.998 31.5753 289.998 32.389V35.9568C289.998 36.7705 289.489 37.459 288.889 37.459H281.403C280.802 37.459 280.294 38.1475 280.294 38.9612V55.6736C280.294 56.4873 280.802 57.1758 281.403 57.1758H288.889C289.489 57.1758 289.998 57.8644 289.998 58.6781V62.2459C289.998 63.0596 289.489 63.7481 288.889 63.7481H276.551C275.95 63.7481 275.441 63.0596 275.441 62.2459ZM290.044 55.6736V38.9612C290.044 38.1475 290.552 37.459 291.153 37.459H293.787C294.388 37.459 294.896 38.1475 294.896 38.9612V55.6736C294.896 56.4873 294.388 57.1758 293.787 57.1758H291.153C290.552 57.1758 290.044 56.4873 290.044 55.6736Z" fill="#F43B3B"/>
<path d="M299.748 62.2459V32.3264C299.748 31.5127 300.256 30.8241 300.857 30.8241H318.047C318.648 30.8241 319.156 31.5127 319.156 32.3264V35.8942C319.156 36.7079 318.648 37.3964 318.047 37.3964H310.561C309.96 37.3964 309.452 38.0849 309.452 38.8987V62.1833C309.452 62.997 308.944 63.6855 308.343 63.6855H300.857C300.256 63.6855 299.748 62.997 299.748 62.1833V62.2459ZM319.202 62.2459V38.9612C319.202 38.1475 319.711 37.459 320.311 37.459H322.945C323.546 37.459 324.055 38.1475 324.055 38.9612V62.2459C324.055 63.0596 323.546 63.7481 322.945 63.7481H320.311C319.711 63.7481 319.202 63.0596 319.202 62.2459Z" fill="#F43B3B"/>
<path d="M328.907 62.2459V25.7541C328.907 24.9404 329.415 24.2519 330.016 24.2519H352.104C352.705 24.2519 353.213 24.9404 353.213 25.7541V29.3219C353.213 30.1356 352.705 30.8241 352.104 30.8241H339.766C339.165 30.8241 338.657 31.5127 338.657 32.3264V42.4665C338.657 43.2802 339.165 43.9687 339.766 43.9687H352.104C352.705 43.9687 353.213 44.6572 353.213 45.4709V49.0387C353.213 49.8525 352.705 50.541 352.104 50.541H339.766C339.165 50.541 338.657 51.2295 338.657 52.0432V62.1833C338.657 62.997 338.149 63.6855 337.548 63.6855H330.062C329.461 63.6855 328.953 62.997 328.953 62.1833L328.907 62.2459ZM353.213 42.5291V32.389C353.213 31.5753 353.721 30.8867 354.322 30.8867H356.956C357.557 30.8867 358.065 31.5753 358.065 32.389V42.5291C358.065 43.3428 357.557 44.0313 356.956 44.0313H354.322C353.721 44.0313 353.213 43.3428 353.213 42.5291ZM353.213 62.2459V52.1058C353.213 51.2921 353.721 50.6036 354.322 50.6036H356.956C357.557 50.6036 358.065 51.2921 358.065 52.1058V62.2459C358.065 63.0596 357.557 63.7482 356.956 63.7482H354.322C353.721 63.7482 353.213 63.0596 353.213 62.2459Z" fill="white"/>
<path d="M356.956 65H354.322C353.213 65 352.289 63.7481 352.289 62.2459V52.1058C352.289 52.1058 352.289 51.918 352.289 51.8554C352.243 51.8554 352.15 51.8554 352.104 51.8554H339.766C339.766 51.8554 339.581 51.9806 339.581 52.1058V62.2459C339.581 63.7481 338.657 65 337.548 65H330.062C328.953 65 328.029 63.7481 328.029 62.2459V25.7541C328.029 24.2519 328.953 23 330.062 23H352.15C353.259 23 354.183 24.2519 354.183 25.7541V29.3219C354.183 29.3219 354.183 29.5097 354.183 29.5723C354.23 29.5723 354.322 29.5723 354.368 29.5723H357.002C358.111 29.5723 359.036 30.8241 359.036 32.3264V42.4665C359.036 43.9687 358.111 45.2206 357.002 45.2206H354.368C354.368 45.2206 354.23 45.2206 354.183 45.2206C354.183 45.2832 354.183 45.4083 354.183 45.4709V49.0387C354.183 49.0387 354.183 49.2265 354.183 49.2891C354.23 49.2891 354.322 49.2891 354.368 49.2891H357.002C358.111 49.2891 359.036 50.541 359.036 52.0432V62.1833C359.036 63.6856 358.111 64.9374 357.002 64.9374L356.956 65ZM354.322 51.8554C354.322 51.8554 354.137 51.9806 354.137 52.1058V62.2459C354.137 62.2459 354.23 62.4963 354.322 62.4963H356.956C356.956 62.4963 357.141 62.3711 357.141 62.2459V52.1058C357.141 52.1058 357.049 51.8554 356.956 51.8554H354.322ZM330.016 25.5037C330.016 25.5037 329.831 25.6289 329.831 25.7541V62.2459C329.831 62.2459 329.923 62.4963 330.016 62.4963H337.502C337.502 62.4963 337.686 62.3711 337.686 62.2459V52.1058C337.686 50.6036 338.611 49.3517 339.72 49.3517H352.058C352.058 49.3517 352.243 49.2265 352.243 49.1014V45.5335C352.243 45.5335 352.15 45.2832 352.058 45.2832H339.72C338.611 45.2832 337.686 44.0313 337.686 42.5291V32.389C337.686 30.8867 338.611 29.6349 339.72 29.6349H352.058C352.058 29.6349 352.243 29.5097 352.243 29.3845V25.8167C352.243 25.8167 352.15 25.5663 352.058 25.5663H329.969L330.016 25.5037ZM339.72 32.076C339.72 32.076 339.535 32.2012 339.535 32.3264V42.4665C339.535 42.4665 339.627 42.7168 339.72 42.7168H352.058C352.058 42.7168 352.196 42.7168 352.243 42.7168C352.243 42.6543 352.243 42.5291 352.243 42.4665V32.3264C352.243 32.3264 352.243 32.1386 352.243 32.076C352.196 32.076 352.104 32.076 352.058 32.076H339.72ZM354.322 32.076C354.322 32.076 354.137 32.2012 354.137 32.3264V42.4665C354.137 42.4665 354.23 42.7168 354.322 42.7168H356.956C356.956 42.7168 357.141 42.5917 357.141 42.4665V32.3264C357.141 32.3264 357.049 32.076 356.956 32.076H354.322Z" fill="#A6A6A6"/>
<path d="M362.917 62.2459V25.7541C362.917 24.9404 363.426 24.2519 364.026 24.2519H386.115C386.715 24.2519 387.224 24.9404 387.224 25.7541V29.3219C387.224 30.1356 386.715 30.8241 386.115 30.8241H373.777C373.176 30.8241 372.668 31.5127 372.668 32.3264V55.6736C372.668 56.4873 373.176 57.1759 373.777 57.1759H386.115C386.715 57.1759 387.224 57.8644 387.224 58.6781V62.2459C387.224 63.0596 386.715 63.7482 386.115 63.7482H364.026C363.426 63.7482 362.917 63.0596 362.917 62.2459ZM387.224 55.6736V32.3264C387.224 31.5127 387.732 30.8241 388.333 30.8241H390.967C391.567 30.8241 392.076 31.5127 392.076 32.3264V55.6736C392.076 56.4873 391.567 57.1759 390.967 57.1759H388.333C387.732 57.1759 387.224 56.4873 387.224 55.6736Z" fill="white"/>
<path d="M386.115 65H364.026C362.917 65 361.993 63.7481 361.993 62.2459V25.7541C361.993 24.2519 362.917 23 364.026 23H386.115C387.224 23 388.148 24.2519 388.148 25.7541V29.3219C388.148 29.3219 388.148 29.5097 388.148 29.5723C388.194 29.5723 388.287 29.5723 388.333 29.5723H390.967C392.076 29.5723 393 30.8241 393 32.3264V55.6736C393 57.1759 392.076 58.4277 390.967 58.4277H388.333C388.333 58.4277 388.194 58.4277 388.148 58.4277C388.148 58.4903 388.148 58.6155 388.148 58.6781V62.2459C388.148 63.7481 387.224 65 386.115 65ZM364.026 25.5037C364.026 25.5037 363.841 25.6289 363.841 25.7541V62.2459C363.841 62.2459 363.934 62.4963 364.026 62.4963H386.115C386.115 62.4963 386.3 62.3711 386.3 62.2459V58.6781C386.3 58.6781 386.207 58.4277 386.115 58.4277H373.777C372.668 58.4277 371.743 57.1759 371.743 55.6736V32.3264C371.743 30.8241 372.668 29.5723 373.777 29.5723H386.115C386.115 29.5723 386.3 29.4471 386.3 29.3219V25.7541C386.3 25.7541 386.207 25.5037 386.115 25.5037H364.026ZM373.73 32.076C373.73 32.076 373.546 32.2012 373.546 32.3264V55.6736C373.546 55.6736 373.638 55.924 373.73 55.924H386.068C386.068 55.924 386.207 55.924 386.253 55.924C386.253 55.8614 386.253 55.7362 386.253 55.6736V32.3264C386.253 32.3264 386.253 32.1386 386.253 32.076C386.207 32.076 386.115 32.076 386.068 32.076H373.73ZM388.333 32.076C388.333 32.076 388.148 32.2012 388.148 32.3264V55.6736C388.148 55.6736 388.24 55.924 388.333 55.924H390.967C390.967 55.924 391.152 55.7988 391.152 55.6736V32.3264C391.152 32.3264 391.059 32.076 390.967 32.076H388.333Z" fill="#A6A6A6"/>
<path d="M47.8151 55.956L38.2166 47.6622L55.1596 33.0221L64.758 41.316L47.8151 55.956ZM47.8151 62.718L72.5837 41.316L55.1596 26.2601L30.3909 47.6622L47.8151 62.718Z" fill="#F43B3B"/>
<path d="M78.2314 82.238L68.6329 73.9442L85.5759 59.3042L95.1744 67.598L78.2314 82.238ZM78.2314 89L103 67.598L85.5759 52.5422L60.8073 73.9442L78.2314 89Z" fill="#F43B3B"/>
<path d="M17.4241 82.238L7.82567 73.9442L24.7686 59.3042L34.3671 67.598L17.4241 82.238ZM17.4241 89L42.1928 67.598L24.7686 52.5422L0 73.9442L17.4241 89Z" fill="#F43B3B"/>
<path d="M78.2314 29.6958L68.6329 21.402L85.5759 6.76199L95.1744 15.0558L78.2314 29.6958ZM78.2314 36.4578L103 15.0558L85.5759 0L60.8073 21.402L78.2314 36.4578Z" fill="#F43B3B"/>
<path d="M71.7733 23.5904L75.0403 20.7674L78.9405 24.1593L58.3506 41.9506L54.4505 38.5586L71.7733 23.5904Z" fill="#116299"/>
<path d="M41.3823 49.8505L44.6241 47.0494L48.5495 50.4195L27.9597 68.2107L24.0342 64.8407L41.3823 49.8505Z" fill="#116299"/>
<path d="M86.6902 36.4578L89.9319 33.6349L93.8321 37.0268L73.2422 54.8181L69.342 51.4261L86.6902 36.4578Z" fill="#116299"/>
<path d="M56.2739 62.718L59.5156 59.9169L63.4411 63.287L42.8512 81.0782L38.9258 77.7081L56.2739 62.718Z" fill="#116299"/>
<path d="M24.7433 6.76199L34.3418 15.0558L17.3988 29.6958L7.80034 21.402L24.7433 6.76199ZM24.7433 0L0 21.402L17.4241 36.4578L42.1674 15.0558L24.7433 0Z" fill="#F43B3B"/>
<path d="M16.3098 52.5422L13.0428 55.3433L9.14261 51.9732L29.7325 34.182L33.6327 37.552L16.3098 52.5422Z" fill="#116299"/>
<path d="M46.7008 26.2601L43.4591 29.0612L39.5589 25.6912L60.1488 7.89993L64.0489 11.2919L46.7008 26.2601Z" fill="#116299"/>
</svg>
